<?xml version="1.0" encoding="UTF-8" standalone="no"?>
<!DOCTYPE svg PUBLIC "-//W3C//DTD SVG 1.1//EN" "http://www.w3.org/Graphics/SVG/1.1/DTD/svg11.dtd">
<svg width="100%" height="100%" viewBox="0 0 83 89" version="1.1" xmlns="http://www.w3.org/2000/svg" xmlns:xlink="http://www.w3.org/1999/xlink" xml:space="preserve" xmlns:serif="http://www.serif.com/" style="fill-rule:evenodd;clip-rule:evenodd;stroke-linejoin:round;stroke-miterlimit:2;">
    <g transform="matrix(1,0,0,1,-8,-6)">
        <path d="M9.814,56.315L13.102,56.892L13.068,57.328L10.275,57.641L13.333,61.448L15.582,61.448L16.62,62.948L20.484,66.177L27.117,66.465L32.596,64.043L30.404,62.37L26.309,61.562L30.469,61.333L34.095,63.292L38.997,70.041L41.016,75.463L41.766,84.057L45.285,76.444L45.169,72.637L47.246,73.502L46.496,67.157L45.328,63.192L49.121,66.003L50.102,62.141L54.54,64.187L52.708,55.537L48.312,48.01L44.188,43.914L49.437,46.798L56.531,55.161L58.895,65.206L58.26,76.04L52.45,85.533L43.38,94.208L56.356,92.478L61.491,90.69L67.516,78.087L68.209,69.118L70.171,77.395L69.452,87.46L75.103,83.538L78.91,78.232L78.261,70.025L75.739,62.112L72.365,55.537L77.872,60.699L81.535,66.957L83.179,73.389L87.188,62.944L84.251,53.626L77.296,46.713L85.376,50.876L90.187,57.501L88.376,46.126L76.867,33.888L59.177,26.808L41.997,24.997L34.422,19.201L29.971,12.539L32.221,5.791L28.242,12.193L26.858,17.654L26.858,27.852L19.966,31.515L14.832,37.455L15.265,45.155L9.815,52.681L9.815,56.315L9.814,56.315ZM24.435,58.479L28.761,58.479L32.286,59.041L35.768,60.599L40.05,63.93L35.465,61.465L31.962,59.864L28.458,59.344L25.041,59.344L24.435,58.479ZM23.007,55.948L28.068,55.537L32.675,55.884L36.244,57.007L39.055,58.479L41.996,60.598L39.141,59.214L35.897,57.787L32.501,56.964L28.327,56.683L23.742,57.007L23.007,55.948ZM19.46,46.626L20.393,44.046L24.562,43.312L27.592,44.03L24.625,44.688L21.687,46.937L19.5,49.312L19.46,46.626Z" style="fill-rule:nonzero;"/>
    </g>
</svg>
